<?xml version="1.0" encoding="UTF-8" standalone="no"?>
<!DOCTYPE svg PUBLIC "-//W3C//DTD SVG 1.1//EN" "http://www.w3.org/Graphics/SVG/1.1/DTD/svg11.dtd">
<!-- Generated by Microsoft Visio, SVG Export Downloaded_2020-08-12_-_SCC_Logo_-_SVG.svg Page-1 -->
<svg xmlns="http://www.w3.org/2000/svg" xmlns:xlink="http://www.w3.org/1999/xlink" xmlns:ev="http://www.w3.org/2001/xml-events"
		xmlns:v="http://schemas.microsoft.com/visio/2003/SVGExtensions/" width="8.4431in" height="1.96531in"
		viewBox="0 0 607.903 141.502" xml:space="preserve" color-interpolation-filters="sRGB" class="st3">
	<v:documentProperties v:langID="1033" v:viewMarkup="false"/>

	<style type="text/css">
	<![CDATA[
		.st1 {fill:#8f999f;stroke:none;stroke-linecap:butt;stroke-width:0.1}
		.st2 {fill:#7f1428;stroke:none;stroke-linecap:butt;stroke-width:0.1}
		.st3 {fill:none;fill-rule:evenodd;font-size:12px;overflow:visible;stroke-linecap:square;stroke-miterlimit:3}
	]]>
	</style>

	<g v:mID="0" v:index="1" v:groupContext="foregroundPage">
		<title>Page-1</title>
		<v:pageProperties v:drawingScale="1" v:pageScale="1" v:drawingUnits="19" v:shadowOffsetX="9" v:shadowOffsetY="-9"/>
		<g id="group1-1" transform="translate(0.1,-0.1)" v:mID="1" v:groupContext="group">
			<title>g12</title>
			<g id="shape2-2" v:mID="2" v:groupContext="shape" transform="translate(1.59872E-13,207.673) scale(1,-1)">
				<title>path14</title>
				<path d="M98.74 135.71 C100.54 134.7 102.4 133.64 104.48 132.63 L53.78 66.17 L0 139.37 C2.59 138.36 4.82 137.08 7.19
							 135.71 C13.23 132.26 20.06 128.33 33.14 128.33 C46.19 128.33 53.01 132.26 59.05 135.71 C60.61 136.62
							 62.13 137.48 63.72 138.27 C63.78 138.3 63.84 138.33 63.9 138.36 C64.63 138.7 65.39 139.03 66.18 139.34
							 C66.28 139.4 66.37 139.43 66.46 139.46 C66.92 139.64 67.37 139.79 67.83 139.95 C68.26 140.07 68.65 140.19
							 69.08 140.31 C69.14 140.34 69.23 140.34 69.29 140.37 L69.32 140.37 C71.95 141.07 75.03 141.5 78.9 141.5
							 C82.77 141.5 85.85 141.07 88.47 140.37 C88.96 140.25 89.45 140.1 89.93 139.95 C90.42 139.79 90.88 139.64
							 91.31 139.46 C92.28 139.09 93.2 138.7 94.08 138.27 C95.66 137.48 97.19 136.62 98.74 135.71 Z"
						class="st1"/>
			</g>
			<g id="shape3-4" v:mID="3" v:groupContext="shape" transform="translate(27.7725,141.702) scale(1,-1)">
				<title>path16</title>
				<path d="M106.4 75.65 C103.77 74.95 100.73 74.55 96.88 74.55 C87.07 74.55 82.43 77.21 77.04 80.32 C71.03 83.79 64.2
							 87.69 51.12 87.69 C38.05 87.69 31.22 83.79 25.21 80.32 C19.82 77.21 15.18 74.55 5.37 74.55 C3.38 74.55
							 1.62 74.65 0 74.86 L54.54 141.5 L106.4 75.65 Z" class="st2"/>
			</g>
			<g id="shape4-6" v:mID="4" v:groupContext="shape" transform="translate(146.801,162.541) scale(1,-1)">
				<title>path18</title>
				<path d="M0 93.26 L6.58 101.41 C10.73 96.55 16.05 94.44 20.44 94.44 C25.76 94.44 28.42 96.87 28.42 100.31 C28.42
							 104.38 25.45 105.87 18.71 108.14 C10.34 111.12 1.96 115.04 1.96 125.53 C1.96 134.45 9.79 141.27 19.81
							 141.43 C26.7 141.5 33.13 138.92 38.53 134.38 L32.18 126.08 C27.57 129.91 23.49 131.56 20.05 131.56 C16.21
							 131.56 13.39 129.52 13.39 126 C13.31 122.55 16.37 121.06 22.71 118.56 C32.34 114.8 39.94 112.29 39.94
							 101.57 C39.94 89.43 29.37 84.49 20.28 84.49 C13.08 84.49 5.79 87.23 0 93.26 Z" class="st2"/>
			</g>
			<g id="shape5-8" v:mID="5" v:groupContext="shape" transform="translate(191.503,163.323) scale(1,-1)">
				<title>path20</title>
				<path d="M15.35 131.64 L0 131.64 L0 141.5 L41.74 141.5 L41.74 131.64 L26.31 131.64 L26.31 85.9 L15.35 85.9 L15.35
							 131.64 Z" class="st2"/>
			</g>
			<g id="shape6-10" v:mID="6" v:groupContext="shape" transform="translate(229.997,207.098) scale(1,-1)">
				<title>path22</title>
				<path d="M0 135.24 C0 138.68 2.82 141.5 6.34 141.5 C9.79 141.5 12.69 138.68 12.69 135.24 C12.69 131.79 9.79 129.05
							 6.34 129.05 C2.82 129.05 0 131.79 0 135.24 Z" class="st2"/>
			</g>
			<g id="shape7-12" v:mID="7" v:groupContext="shape" transform="translate(256.72,162.617) scale(1,-1)">
				<title>path24</title>
				<path d="M0 112.84 C0 128.74 10.18 141.5 28.35 141.5 C36.02 141.5 44.4 138.29 50.51 130.85 L42.45 123.96 C39.15 127.8
							 34.14 131.01 28.35 131.01 C18.72 131.01 11.51 123.96 11.51 112.84 C11.51 102.5 18.4 95.06 28.35 95.06
							 C34.14 95.06 39.15 98.04 42.45 102.11 L50.51 95.14 C45.73 89.19 38.22 84.65 28.35 84.65 C13.16 84.65
							 0 94.52 0 112.84 Z" class="st2"/>
			</g>
			<g id="shape8-14" v:mID="8" v:groupContext="shape" transform="translate(315.831,163.323) scale(1,-1)">
				<title>path26</title>
				<path d="M0 141.5 L11.04 141.5 L11.04 117.46 L33.83 117.46 L33.83 141.5 L44.87 141.5 L44.87 85.9 L33.83 85.9 L33.83
							 107.59 L11.04 107.59 L11.04 85.9 L0 85.9 L0 141.5 Z" class="st2"/>
			</g>
			<g id="shape9-16" v:mID="9" v:groupContext="shape" transform="translate(368.047,163.323) scale(1,-1)">
				<title>path28</title>
				<path d="M33.44 106.42 L26 128.27 L25.84 128.27 L18.48 106.42 L33.44 106.42 ZM36.65 97.02 L15.27 97.02 L11.51 85.9
							 L0 85.9 L20.59 141.5 L31.17 141.5 L51.92 85.9 L40.41 85.9 L36.65 97.02 Z" class="st2"/>
			</g>
			<g id="shape10-18" v:mID="10" v:groupContext="shape" transform="translate(427.471,164.106) scale(1,-1)">
				<title>path30</title>
				<path d="M19.81 114.96 C27.25 114.96 30.38 118.01 30.38 123.33 C30.38 128.5 27.25 131.71 19.81 131.71 L10.96 131.71
							 L10.96 114.96 L19.81 114.96 ZM19.81 141.5 C34.85 141.5 41.89 134.45 41.89 123.88 C41.89 111.04 30.15
							 109.32 30.15 109.32 L30.15 108.77 C30.15 108.77 33.52 107.67 35.08 103.99 L37.12 99.29 C38.06 97.1 39.7
							 95.46 42.68 95.46 C44.17 95.46 45.26 95.69 45.26 95.69 L45.26 86.69 C45.26 86.69 42.68 85.75 39.78 85.75
							 C33.13 85.75 29.84 89.03 27.64 93.89 L24.28 101.25 C23.18 103.6 21.54 105.17 18.79 105.17 L10.96 105.17
							 L10.96 86.69 L0 86.69 L0 141.5 L19.81 141.5 Z" class="st2"/>
			</g>
			<g id="shape11-20" v:mID="11" v:groupContext="shape" transform="translate(480.004,163.323) scale(1,-1)">
				<title>path32</title>
				<path d="M0 141.5 L11.04 141.5 L11.04 95.69 L35.79 95.69 L35.79 85.9 L0 85.9 L0 141.5 Z" class="st2"/>
			</g>
			<g id="shape12-22" v:mID="12" v:groupContext="shape" transform="translate(524.316,163.323) scale(1,-1)">
				<title>path34</title>
				<path d="M0 141.5 L35.55 141.5 L35.55 131.64 L10.81 131.64 L10.81 118.32 L30.62 118.32 L30.62 108.61 L10.81 108.61
							 L10.81 95.69 L37.2 95.69 L37.2 85.9 L0 85.9 L0 141.5 Z" class="st2"/>
			</g>
			<g id="shape13-24" v:mID="13" v:groupContext="shape" transform="translate(567.764,162.541) scale(1,-1)">
				<title>path36</title>
				<path d="M0 93.26 L6.58 101.41 C10.73 96.55 16.05 94.44 20.44 94.44 C25.77 94.44 28.42 96.87 28.42 100.31 C28.42
							 104.38 25.45 105.87 18.72 108.14 C10.34 111.12 1.96 115.04 1.96 125.53 C1.96 134.45 9.79 141.27 19.81
							 141.43 C26.7 141.5 33.13 138.92 38.53 134.38 L32.18 126.08 C27.57 129.91 23.49 131.56 20.05 131.56 C16.21
							 131.56 13.39 129.52 13.39 126 C13.31 122.55 16.37 121.06 22.71 118.56 C32.34 114.8 39.94 112.29 39.94
							 101.57 C39.94 89.43 29.37 84.49 20.28 84.49 C13.08 84.49 5.79 87.23 0 93.26 Z" class="st2"/>
			</g>
			<g id="shape14-26" v:mID="14" v:groupContext="shape" transform="translate(146.473,237.949) scale(1,-1)">
				<title>path38</title>
				<path d="M22.53 119.94 C20.14 116.94 17.33 115.55 13.69 115.55 C6.81 115.55 2.36 120.13 2.36 127.21 C2.36 134.44
							 6.81 139.11 13.69 139.11 C17.18 139.11 20.24 137.57 22.52 134.68 L23 134.07 L24.87 135.64 L24.41 136.21
							 C21.61 139.67 17.9 141.5 13.69 141.5 C5.5 141.5 0 135.76 0 127.21 C0 118.82 5.5 113.19 13.69 113.19
							 C18.05 113.19 21.55 114.91 24.41 118.44 L24.88 119.03 L22.99 120.52 L22.53 119.94 Z" class="st1"/>
			</g>
			<g id="shape15-28" v:mID="15" v:groupContext="shape" transform="translate(177.107,237.949) scale(1,-1)">
				<title>path40</title>
				<path d="M13.84 115.55 C7.19 115.55 2.36 120.52 2.36 127.36 C2.36 134.17 7.19 139.11 13.84 139.11 C20.45 139.11 25.24
							 134.17 25.24 127.36 C25.24 120.52 20.45 115.55 13.84 115.55 ZM13.84 141.5 C5.95 141.5 0 135.42 0 127.36
							 C0 119.15 5.82 113.19 13.84 113.19 C21.68 113.19 27.6 119.28 27.6 127.36 C27.6 135.42 21.68 141.5 13.84
							 141.5 Z" class="st1"/>
			</g>
			<g id="shape16-30" v:mID="16" v:groupContext="shape" transform="translate(212.788,238.099) scale(1,-1)">
				<title>path42</title>
				<path d="M13.39 122.52 L2.07 141.5 L0 141.5 L0 113.45 L2.36 113.45 L2.36 136.4 L12.55 119.25 L14.19 119.25 L24.35
							 136.39 L24.35 113.45 L26.71 113.45 L26.71 141.5 L24.67 141.5 L13.39 122.52 Z" class="st1"/>
			</g>
			<g id="shape17-32" v:mID="17" v:groupContext="shape" transform="translate(248.621,238.099) scale(1,-1)">
				<title>path44</title>
				<path d="M13.39 122.52 L2.07 141.5 L0 141.5 L0 113.45 L2.36 113.45 L2.36 136.4 L12.55 119.25 L14.19 119.25 L24.35
							 136.39 L24.35 113.45 L26.71 113.45 L26.71 141.5 L24.67 141.5 L13.39 122.52 Z" class="st1"/>
			</g>
			<g id="shape18-34" v:mID="18" v:groupContext="shape" transform="translate(284.155,238.099) scale(1,-1)">
				<title>path46</title>
				<path d="M18.62 124.78 C18.62 119.18 15.5 115.7 10.47 115.7 C5.47 115.7 2.36 119.18 2.36 124.78 L2.36 141.5 L0 141.5
							 L0 124.78 C0 117.83 4.11 113.34 10.47 113.34 C16.76 113.34 20.98 117.94 20.98 124.78 L20.98 141.5 L18.62
							 141.5 L18.62 124.78 Z" class="st1"/>
			</g>
			<g id="shape19-36" v:mID="19" v:groupContext="shape" transform="translate(313.888,238.099) scale(1,-1)">
				<title>path48</title>
				<path d="M19.67 117.89 L1.95 141.5 L0 141.5 L0 113.45 L2.36 113.45 L2.36 137.02 L20.05 113.45 L22.03 113.45 L22.03
							 141.5 L19.67 141.5 L19.67 117.89 Z" class="st1"/>
			</g>
			<g id="shape20-38" v:mID="20" v:groupContext="shape" transform="translate(345.307,238.099) scale(1,-1)">
				<title>path50</title>
				<rect x="0" y="113.451" width="2.361" height="28.0512" class="st1"/>
			</g>
			<g id="shape21-40" v:mID="21" v:groupContext="shape" transform="translate(354.62,238.099) scale(1,-1)">
				<title>path52</title>
				<path d="M0 139.18 L8.71 139.18 L8.71 113.45 L11.07 113.45 L11.07 139.18 L19.9 139.18 L19.9 141.5 L0 141.5 L0 139.18
							 Z" class="st1"/>
			</g>
			<g id="shape22-42" v:mID="22" v:groupContext="shape" transform="translate(378.237,238.099) scale(1,-1)">
				<title>path54</title>
				<path d="M11.06 128.62 L2.83 141.5 L0 141.5 L9.9 126.06 L9.9 113.45 L12.26 113.45 L12.26 126.06 L22.19 141.5 L19.36
							 141.5 L11.06 128.62 Z" class="st1"/>
			</g>
			<g id="shape23-44" v:mID="23" v:groupContext="shape" transform="translate(419.627,237.949) scale(1,-1)">
				<title>path56</title>
				<path d="M22.53 119.94 C20.14 116.94 17.33 115.55 13.69 115.55 C6.81 115.55 2.36 120.13 2.36 127.21 C2.36 134.44
							 6.81 139.11 13.69 139.11 C17.18 139.11 20.24 137.57 22.52 134.68 L23 134.07 L24.87 135.64 L24.41 136.21
							 C21.61 139.67 17.9 141.5 13.69 141.5 C5.5 141.5 0 135.76 0 127.21 C0 118.82 5.5 113.19 13.69 113.19
							 C18.05 113.19 21.55 114.91 24.41 118.44 L24.88 119.03 L22.99 120.52 L22.53 119.94 Z" class="st1"/>
			</g>
			<g id="shape24-46" v:mID="24" v:groupContext="shape" transform="translate(450.26,237.949) scale(1,-1)">
				<title>path58</title>
				<path d="M13.84 115.55 C7.19 115.55 2.36 120.52 2.36 127.36 C2.36 134.17 7.19 139.11 13.84 139.11 C20.45 139.11 25.24
							 134.17 25.24 127.36 C25.24 120.52 20.45 115.55 13.84 115.55 ZM13.84 141.5 C5.95 141.5 0 135.42 0 127.36
							 C0 119.15 5.82 113.19 13.84 113.19 C21.69 113.19 27.6 119.28 27.6 127.36 C27.6 135.42 21.69 141.5 13.84
							 141.5 Z" class="st1"/>
			</g>
			<g id="shape25-48" v:mID="25" v:groupContext="shape" transform="translate(485.942,238.099) scale(1,-1)">
				<title>path60</title>
				<path d="M2.36 141.5 L0 141.5 L0 113.45 L17.09 113.45 L17.09 115.81 L2.36 115.81 L2.36 141.5 Z" class="st1"/>
			</g>
			<g id="shape26-50" v:mID="26" v:groupContext="shape" transform="translate(509.62,238.099) scale(1,-1)">
				<title>path62</title>
				<path d="M2.36 141.5 L0 141.5 L0 113.45 L17.09 113.45 L17.09 115.81 L2.36 115.81 L2.36 141.5 Z" class="st1"/>
			</g>
			<g id="shape27-52" v:mID="27" v:groupContext="shape" transform="translate(533.296,238.099) scale(1,-1)">
				<title>path64</title>
				<path d="M2.36 126.31 L14.59 126.31 L14.59 128.67 L2.36 128.67 L2.36 139.18 L16.91 139.18 L16.91 141.5 L0 141.5 L0
							 113.45 L17.69 113.45 L17.69 115.81 L2.36 115.81 L2.36 126.31 Z" class="st1"/>
			</g>
			<g id="shape28-54" v:mID="28" v:groupContext="shape" transform="translate(556.449,237.949) scale(1,-1)">
				<title>path66</title>
				<path d="M12.27 125.19 L22.33 125.19 L22.33 118.18 C20.17 116.46 17.21 115.55 13.73 115.55 C6.93 115.55 2.36 120.27
							 2.36 127.29 C2.36 134.36 6.93 139.11 13.73 139.11 C17.27 139.11 19.98 138.09 22.26 135.91 L22.79 135.4
							 L24.44 137.06 L23.9 137.59 C21.19 140.22 17.87 141.5 13.73 141.5 C5.64 141.5 0 135.66 0 127.29 C0 118.99
							 5.64 113.19 13.73 113.19 C18.06 113.19 21.77 114.46 24.44 116.86 L24.69 117.08 L24.69 127.55 L12.27
							 127.55 L12.27 125.19 Z" class="st1"/>
			</g>
			<g id="shape29-56" v:mID="29" v:groupContext="shape" transform="translate(589.812,238.099) scale(1,-1)">
				<title>path68</title>
				<path d="M2.36 115.81 L2.36 126.31 L14.59 126.31 L14.59 128.67 L2.36 128.67 L2.36 139.18 L16.91 139.18 L16.91 141.5
							 L0 141.5 L0 113.45 L17.69 113.45 L17.69 115.81 L2.36 115.81 Z" class="st1"/>
			</g>
		</g>
	</g>
</svg>
